<svg xmlns="http://www.w3.org/2000/svg" viewBox="0 0 392 96" width="392" height="96" role="img" aria-label="Automatix"><defs><linearGradient id="gl" x1="0" y1="0" x2="1" y2="1"><stop offset="0" stop-color="#16307A"></stop><stop offset="1" stop-color="#4D86FF"></stop></linearGradient></defs><g fill="url(#gl)"><rect x="45.50" y="6" width="5" height="9" rx="2.50" transform="rotate(0 48 48)"></rect><rect x="45.50" y="6" width="5" height="9" rx="2.50" transform="rotate(36 48 48)"></rect><rect x="45.50" y="6" width="5" height="9" rx="2.50" transform="rotate(72 48 48)"></rect><rect x="45.50" y="6" width="5" height="9" rx="2.50" transform="rotate(108 48 48)"></rect><rect x="45.50" y="6" width="5" height="9" rx="2.50" transform="rotate(144 48 48)"></rect><rect x="45.50" y="6" width="5" height="9" rx="2.50" transform="rotate(180 48 48)"></rect><rect x="45.50" y="6" width="5" height="9" rx="2.50" transform="rotate(216 48 48)"></rect><rect x="45.50" y="6" width="5" height="9" rx="2.50" transform="rotate(252 48 48)"></rect><rect x="45.50" y="6" width="5" height="9" rx="2.50" transform="rotate(288 48 48)"></rect><rect x="45.50" y="6" width="5" height="9" rx="2.50" transform="rotate(324 48 48)"></rect></g><circle cx="48" cy="48" r="33" fill="none" stroke="url(#gl)" stroke-width="4.5"></circle><path d="M39 63 L48 35 L57 63" fill="none" stroke="url(#gl)" stroke-width="5.5" stroke-linecap="round" stroke-linejoin="round"></path><path d="M43.5 52 L52.5 52" stroke="url(#gl)" stroke-width="5.5" stroke-linecap="round"></path><text x="118" y="62" font-family="&#39;Space Grotesk&#39;,&#39;Helvetica Neue&#39;,Arial,sans-serif" font-size="47" font-weight="600" letter-spacing="-1.5" fill="#0B1020">Automatix</text></svg>