<svg xmlns="http://www.w3.org/2000/svg" viewBox="0 0 96 96" width="96" height="96" role="img" aria-label="Automatix"><g fill="#FFFFFF"><rect x="45.50" y="6" width="5" height="9" rx="2.50" transform="rotate(0 48 48)"></rect><rect x="45.50" y="6" width="5" height="9" rx="2.50" transform="rotate(36 48 48)"></rect><rect x="45.50" y="6" width="5" height="9" rx="2.50" transform="rotate(72 48 48)"></rect><rect x="45.50" y="6" width="5" height="9" rx="2.50" transform="rotate(108 48 48)"></rect><rect x="45.50" y="6" width="5" height="9" rx="2.50" transform="rotate(144 48 48)"></rect><rect x="45.50" y="6" width="5" height="9" rx="2.50" transform="rotate(180 48 48)"></rect><rect x="45.50" y="6" width="5" height="9" rx="2.50" transform="rotate(216 48 48)"></rect><rect x="45.50" y="6" width="5" height="9" rx="2.50" transform="rotate(252 48 48)"></rect><rect x="45.50" y="6" width="5" height="9" rx="2.50" transform="rotate(288 48 48)"></rect><rect x="45.50" y="6" width="5" height="9" rx="2.50" transform="rotate(324 48 48)"></rect></g><circle cx="48" cy="48" r="33" fill="none" stroke="#FFFFFF" stroke-width="4.5"></circle><path d="M39 63 L48 35 L57 63" fill="none" stroke="#FFFFFF" stroke-width="5.5" stroke-linecap="round" stroke-linejoin="round"></path><path d="M43.5 52 L52.5 52" stroke="#FFFFFF" stroke-width="5.5" stroke-linecap="round"></path></svg>